<svg width="54" height="54" viewBox="0 0 54 54" fill="none" xmlns="http://www.w3.org/2000/svg">
<path fill-rule="evenodd" clip-rule="evenodd" d="M10.9144 14.2789C8.72212 17.1993 7.53628 20.7519 7.5349 24.4036C7.53154 26.8674 8.0696 29.302 9.11102 31.5349L7.56865 39.2603C7.51446 39.5325 7.52825 39.8139 7.6088 40.0795C7.68935 40.3451 7.83417 40.5868 8.03043 40.783C8.22669 40.9793 8.46833 41.1241 8.73394 41.2047C8.99956 41.2852 9.28093 41.299 9.55315 41.2448L17.2751 39.7024C20.5843 41.2463 24.3051 41.6752 27.8787 40.9246C31.4524 40.1739 34.6861 38.2843 37.0945 35.5395C39.5028 32.7946 40.9559 29.3426 41.2354 25.7017C41.5149 22.0608 40.6059 18.4274 38.6447 15.3471C36.6836 12.2668 33.7762 9.9057 30.359 8.61835C26.9418 7.331 23.1993 7.18684 19.6932 8.2075C16.1871 9.22817 13.1067 11.3586 10.9144 14.2789ZM22.9183 31.3664C23.3139 30.9708 23.8505 30.7486 24.4099 30.7486C24.9693 30.7486 25.5059 30.9708 25.9015 31.3664C26.297 31.762 26.5193 32.2985 26.5193 32.8579C26.5193 33.4174 26.297 33.9539 25.9015 34.3495C25.5059 34.7451 24.9693 34.9673 24.4099 34.9673C23.8505 34.9673 23.3139 34.7451 22.9183 34.3495C22.5228 33.9539 22.3005 33.4174 22.3005 32.8579C22.3005 32.2985 22.5228 31.762 22.9183 31.3664ZM18.156 20.8868C18.1189 17.0494 20.8729 14.2887 24.4099 14.2887C27.8895 14.2887 30.6638 17.1439 30.6638 20.8699C30.6638 22.8477 29.9415 23.9344 28.2101 25.3182L27.2753 26.0438C26.445 26.6986 26.1649 27.0563 26.1075 27.5558L26.0704 28.0823C25.9953 28.4973 25.7675 28.869 25.432 29.1244C25.0964 29.3798 24.6774 29.5004 24.2574 29.4623C23.8375 29.4242 23.447 29.2302 23.1629 28.9186C22.8788 28.607 22.7216 28.2003 22.7224 27.7786C22.7224 25.8514 23.4311 24.7951 25.1389 23.4316L26.0738 22.7059C27.0525 21.9331 27.2888 21.5517 27.2888 20.8699C27.2888 18.9867 26.0029 17.6637 24.4099 17.6637C22.746 17.6637 21.5108 18.8989 21.531 20.8531C21.5355 21.3006 21.362 21.7316 21.0487 22.0512C20.7354 22.3709 20.308 22.553 19.8604 22.5574C19.4128 22.5619 18.9818 22.3884 18.6622 22.0751C18.3426 21.7618 18.1605 21.3344 18.156 20.8868Z" fill="#02123D"/>
<path d="M20.5624 44.2891C23.5612 46.7146 27.303 48.0349 31.1599 48.0286C33.7047 48.0286 36.1211 47.4649 38.2913 46.4524L46.0167 47.9948C46.2889 48.049 46.5702 48.0352 46.8359 47.9547C47.1015 47.8741 47.3431 47.7293 47.5394 47.533C47.7356 47.3368 47.8805 47.0951 47.961 46.8295C48.0416 46.5639 48.0553 46.2825 48.0012 46.0103L46.4588 38.2883C47.4713 36.1182 48.0349 33.6983 48.0349 31.1536C48.0349 27.1407 46.6343 23.4586 44.2954 20.5594C44.7757 23.0581 44.7837 25.6246 44.319 28.1262C45.0267 31.2187 44.6266 34.4615 43.1884 37.2893C43.0151 37.6284 42.9615 38.0162 43.0365 38.3896L44.1975 44.1912L38.3925 43.0302C38.0202 42.956 37.6338 43.0095 37.2956 43.1821C34.4673 44.6224 31.2227 45.0226 28.1291 44.3127C25.6276 44.7778 23.061 44.7698 20.5624 44.2891Z" fill="#02123D"/>
<path fill-rule="evenodd" clip-rule="evenodd" d="M30.375 47.25C26.5181 47.2564 22.7763 45.936 19.7775 43.5105C22.2761 43.9913 24.8427 43.9993 27.3443 43.5341C30.4378 44.2441 33.6824 43.8439 36.5108 42.4035C36.8489 42.2309 37.2353 42.1774 37.6076 42.2516L43.4126 43.4126L42.2516 37.611C42.1767 37.2376 42.2302 36.8499 42.4035 36.5108C43.8417 33.683 44.2418 30.4402 43.5341 27.3476C43.9988 24.846 43.9908 22.2795 43.5105 19.7809C45.8494 22.68 47.25 26.3621 47.25 30.375C47.25 32.9198 46.6864 35.3396 45.6739 37.5098L47.2163 45.2318C47.2704 45.504 47.2567 45.7854 47.1761 46.051C47.0956 46.3166 46.9507 46.5582 46.7545 46.7545C46.5582 46.9507 46.3166 47.0956 46.051 47.1761C45.7853 47.2567 45.504 47.2705 45.2318 47.2163L37.5064 45.6739C35.3363 46.6864 32.9198 47.25 30.375 47.25Z" fill="#EB1125"/>
</svg>
